/* XPM */
static char *result[] = {
/* columns rows colors chars-per-pixel */
"64 64 29 1 ",
"  c #002F00",
". c #003100",
"X c #003200",
"o c #003300",
"O c #003400",
"+ c #003500",
"@ c #003600",
"# c #003800",
"$ c #003C00",
"% c #003E00",
"& c #003F00",
"* c #004000",
"= c #004100",
"- c #004200",
"; c #004400",
": c #004500",
"> c #004F00",
", c #005000",
"< c #005100",
"1 c #005200",
"2 c #005300",
"3 c #005400",
"4 c #005500",
"5 c #005600",
"6 c #005700",
"7 c #005800",
"8 c #005900",
"9 c #005A00",
"0 c #005B00",
/* pixels */
"8876413454355744578775568444841344112322467556776555554788877443",
"8855445554344555677766678576863444224444433356787667765677676432",
"7856575655455566644557777556565755544454413355467657776677655443",
"8746797755444344446776555567554777767555645576655656656777765556",
"6445X876554X75424467X766555X76567788X556778X87545755X567878X6578",
"434@$X7454o$@563558@$X6445o$@876778@$X7999o$@887575@$X7577o$@789",
"34o%*o41<3o*&o5477o%*o6433o*&o6456o%*o7877o*&o6656o%*o7677o*&o78",
"47+-=+3<,4+-=@5567+-=+5311+-=@7777+-=+7644+-=@5533+-=+7677+-=@58",
"6X%;;&o1<X%;;&o33X%;;&o54X%;;&o67X%;;&o74X%;;&o33X%;;&o77X%;;&o7",
"7o=::=o33o=::=o44o=::=o45o=::=o88o=::=o87o=::=o13o=::=o77o=::=o4",
"7o=::=+34+-::=X44o=::=+67+-::=X67o=::=+97+-::=X14o=::=+64+-::=X3",
"4o=::;&XX&;::=X68o=::;&XX&;::=X66o=::;&XX&;::=X<2o=::;&XX&;::=X1",
"5X%;:;%XX%;:;%X46X%;:;%XX%;:;%X68X%;:;%XX%;:;%X33X%;:;%XX%;:;%X3",
"5 +&=&+..O&=&O 57 +&=&+..O&=&O 79 +&=&+..O&=&O 44 +&=&+..O&=&O <",
"886XXX8##5XXX554548XXX4##3XXX456997XXX6##2XXX679787XXX6##8XXX332",
"56689874557877756587442545543<1357567965234777788987778788745664",
"5767875146897554537655476654412456456865455878766765677888755567",
"6788766567898554655556777664323355455667756788755655575556567889",
"7655666777776554547677977565767654365445745466644555575754467655",
"7555676767655575667554743245533444465435544455455767685653235534",
"4447X987777X54656573X355333X42134457X544444X56575779X767633X5533",
"877@$X8777o$@475645@$X5423o$@1,2677@$X5544o$@778787@$X6664o$@444",
"87o%*o9996o*&o6563o%*o7655o*&o<257o%*o4755o*&o9987o%*o6544o*&o57",
"08+-=+7764+-=@7664+-=+7544+-=@2458+-=+4757+-=@8974+-=+6444+-=@47",
"0X%;;&o77X%;;&o86X%;;&o75X%;;&o22X%;;&o55X%;;&o76X%;;&o44X%;;&o8",
"8o=::=o76o=::=o74o=::=o54o=::=o1<o=::=o75o=::=o65o=::=o44o=::=o9",
"6o=::=+78+-::=X74o=::=+65+-::=X1,o=::=+77+-::=X77o=::=+44+-::=X9",
"4o=::;&XX&;::=X65o=::;&XX&;::=X31o=::;&XX&;::=X85o=::;&XX&;::=X0",
"4X%;:;%XX%;:;%X68X%;:;%XX%;:;%X54X%;:;%XX%;:;%X54X%;:;%XX%;:;%X7",
"6 +&=&+..O&=&O 78 +&=&+..O&=&O 75 +&=&+..O&=&O 55 +&=&+..O&=&O 4",
"544XXX1##7XXX347897XXX4##5XXX999886XXX7##4XXX555455XXX4##6XXX863",
"5443323588765457998755478543777878778876432456667886323555446885",
"4454533457775245888744578542656554335577653456554545434443456776",
"6787854245775134779854477676744443122245544578666754434433455678",
"7666753246874<23778866576676645542232135555576777755577644575778",
"5644453134774113899978766677757754453234534475778986667543345789",
"6532X554456X52348998X766777X56765545X335545X54678756X765213X6777",
"664@$X7434o$@344788@$X6678o$@765575@$X4432o$@567754@$X5554o$@566",
"96o%*o7533o*&o4465o%*o3578o*&o4547o%*o4411o*&o5776o%*o3565o*&o55",
"97+-=+5113+-=@4355+-=+4566+-=@4435+-=+5413+-=@4445+-=+3587+-=@54",
"7X%;;&o<1X%;;&o44X%;;&o44X%;;&o44X%;;&o53X%;;&o43X%;;&o45X%;;&o4",
"5o=::=o23o=::=o53o=::=o53o=::=o54o=::=o65o=::=o53o=::=o56o=::=o4",
"6o=::=+77+-::=X53o=::=+63+-::=X54o=::=+87+-::=X43o=::=+53+-::=X7",
"8o=::;&XX&;::=X44o=::;&XX&;::=X53o=::;&XX&;::=X54o=::;&XX&;::=X6",
"8X%;:;%XX%;:;%X55X%;:;%XX%;:;%X42X%;:;%XX%;:;%X55X%;:;%XX%;:;%X7",
"5 +&=&+..O&=&O 55 +&=&+..O&=&O 33 +&=&+..O&=&O 54 +&=&+..O&=&O 9",
"445XXX5##8XXX435432XXX4##8XXX422344XXX7##4XXX575554XXX7##5XXX778",
"2474425598755554322421157776442234322577765435766531259764557788",
"4674337787432564224853157767543334344578876566877642347541335677",
"6762226676434664247864345657785568754589976689987841135341445667",
"0962247777544565445776777656667887766578865479877854444243655555",
"8843357577864436655487877765467976543568875568898744677344755445",
"7744X777788X44465434X799987X33677544X458533X67675755X763457X3234",
"774@$X5778o$@236453@$X5898o$@565543@$X6864o$@778764@$X7433o$@246",
"76o%*o5877o*&o4655o%*o4898o*&o5455o%*o7742o*&o7545o%*o5335o*&o55",
"76+-=+5987+-=@3776+-=+3787+-=@5557+-=+8644+-=@7445+-=+7434+-=@77",
"4X%;;&o87X%;;&o78X%;;&o68X%;;&o54X%;;&o53X%;;&o34X%;;&o31X%;;&o5",
"4o=::=o75o=::=o78o=::=o47o=::=o75o=::=o76o=::=o56o=::=o3<o=::=o6",
"3o=::=+44+-::=X66o=::=+45+-::=X64o=::=+76+-::=X75o=::=+42+-::=X5",
"4o=::;&XX&;::=X45o=::;&XX&;::=X75o=::;&XX&;::=X96o=::;&XX&;::=X5",
"5X%;:;%XX%;:;%X54X%;:;%XX%;:;%X63X%;:;%XX%;:;%X97X%;:;%XX%;:;%X3",
"5 +&=&+..O&=&O 54 +&=&+..O&=&O 54 +&=&+..O&=&O 78 +&=&+..O&=&O 2",
"453XXX7##3XXX778654XXX7##6XXX653335XXX5##1XXX855687XXX5##2XXX443",
"2211144675336889753232557534675134555742>,<488544767664331323334"
};
