/* XPM */
static char *_5d13678906e4ebb84006883b252fe7fuKJJIJUdvsFGDykM[] = {
/* columns rows colors chars-per-pixel */
"64 64 36 1 ",
"  c #550000",
". c #5B0000",
"X c #5D0000",
"o c #630000",
"O c #640000",
"+ c #690000",
"@ c #700900",
"# c #710A00",
"$ c #751200",
"% c #771300",
"& c #781500",
"* c #7A1900",
"= c #7B1B00",
"- c #7C1D00",
"; c #7D1E00",
": c #812600",
"> c #832900",
", c #984E00",
"< c #9B5300",
"1 c #9E5700",
"2 c #9F5800",
"3 c #A05A00",
"4 c #A25E00",
"5 c #A36000",
"6 c #A46200",
"7 c #A56300",
"8 c #A66500",
"9 c #A76700",
"0 c #A96B00",
"q c #AB6E00",
"w c #AC7000",
"e c #AD7200",
"r c #AE7400",
"t c #B07700",
"y c #B27900",
"u c #B37B00",
/* pixels */
"eeq0714999409q799weeq99qw997e924992226259qq09qeq0979907qeeeqq594",
"ee909990974999700qqq0qqqr0q9r9599544699694477qqeqqqqq000qeqq0944",
"qe009q90097009q099990qqqq9q99q9q999596q59155979qqq9qqq0qqq099775",
"eq90eeeq9097949595qqq0909qqw999qqqqqw099q999e0q79q90090qqqqq990q",
"q950.eqq999.q99499qq.qqq99q.q09qqerr.q9qqqe.eq999q90.0qqeqeX90qe",
"959O@Xq909X@o00509wo@X0599X#owqqqqeo@XqeyeX@owwq9q0o@.q9qqX@oqet",
"47X$*X9214X*&X09qqX$*Xq555X*&Xq99qX$*XqwqqX*&Xqq9q.$*Xq0qqX*&Xqr",
"9qo;;o41<5o;;o09qqo;-o9422o;;oqqqwo;-oeq99o;;o9994o;;oq0qqo;;o0r",
"0.$::$X22X$::$X55X$>:$X99.$::$X0w.$:;&Xw9.$::$X55.$>>&XwqX$::$Xe",
"qX->>;X55X;>>*X95X*>>*.99X;>>*XeeX*>>-XrqX->>-X25.*>>*XqqX->>*X9",
"qX*>>;o59o;>>;X59.->>;oqqo;>>;XqqX;>>;orqo;>>*.29X->>-oq9o;>>;.5",
"9X;>>:$..$:>>*XqrX;>>>$X.$:>>*X0qX*>>>$..$:>>-X24X;>>;$..$:>>*X3",
"9.$:>:$..$:>:$.5q.$;>:$..$:>:$Xqe.$;>>&..$:>:$.55.$;>:$..$:>:$.5",
"0 o$*$O..o$-$o 9q o$=$X..X$;$. qr o$-&X. o&*$o 99 o&*$o. o$-$o 1",
"eeq.XXeOo0...9q999r.XX7++5X..99wtrq...q++4X..qqrwrr.X.0++r...754",
"900eteq990qewqq900ee594090995225qq9qwr99459qqwqrrrwqqqeeeeq999q9",
"9wqwew9290ere99995qq999q009742450099qe09599eeeqqqq090qqeeeq999qq",
"qweew0q9qqeee009q9999qqqqqq955559950000qq00qeeq79q900e0090qqqwer",
"qq909qqqqqqqq09599qqqqrqq9q9wqw9055q995qq907q00999090q0q0999w99q",
"q999qw0qqqq999q090q999q9429q955995500549079790700wqw0w909445qq55",
"799q.rreqqqX99q9q9q5X5q9445X942595qq.079997X0q9q9qqrXe0e047X9954",
"eqqo@.eqqqX@o5q0q90o@.9949X@o2<4qqqo@.0957X@Oeqewweo@.0009X@o999",
"eeX$*XrteqX*&X0904X$*.qq79X*$X149qo$*X7q90X*$Xrywq.$*Xqq99X*&X9q",
"yeo;;oqeq9o;;oqqq9o;-oq999o;;O450eo;;o9q0qo;;oerw9o-;o0557o;;o5q",
"yX$::&Xqq.$::$Xe0.$::$Xq9X$:;&X44.$::$Xq0.$::&Xqq.$::$X79X$::$Xe",
"eX*>>*XqqX*>>-Xq9.*>>*X09X->>-X41X->>*Xq9X*>>*X09X->>*X99X->>*Xt",
"qX->>;oqro;>>*.q9X;>>-oq0o;>>-.1<X->>;oweo;>>*XeqX*>>;o99o;>>;.y",
"9X*>>:$..&:>>-X90X*>>:$..$:>>-.92X*>>:$.X&:>>;.e9X->>:$..$:>>*.y",
"9.$;>>$X.$:>:$.qe.$;>>$..$:>:$.99.$:>:$..$:>>$.09X$:>:$..$:>:$.q",
"9 o&-&XX o&*$o qr o$-&o..X$*&O e0 o$*&o...$*$X 99 o$-$o..o$-$o 9",
"995...2O+e...49qrrqX..9o+9.X.ryreeq..Xqo+9..X999999.X.9+oq...e04",
"09556550eeqq999qryeq9q9qe094qqwwqeqqeeq094479q9qqeeq54599959qee9",
"950905599qqq0497eeeq979qe99409q099759qqqq9470q905999559595500qq0",
"0qeqe09499ee9349qwre999qqqq0q797542244590799qe00qq999595559700qe",
"q090q05370eq9145qqee900q0qq0q799944444990909qqqqqe999qqq990q0qqe",
"0q97997249qq9125eyyrqeq000eqq9qq059052669499q9wqereq0qw995499err",
"0944.095900.9459eryr.e00qqqX00eq0999X66q999.99qqee9q.qq7437X0qqq",
"009o@.q947X@o797qeeo@.0qqeX@Oq099q9o#.5544X@o90qq99o@.90q5X@O000",
"rqX$*Xe957X*$X999qX$*X99qeX*$X999qX$*.9924X*&X9qqqX$*X5909X*&X09",
"yqo;;o9225O;;o5599o;-o79qqo;;o5959o;;o9925o;;o7999o;-o50eqo;;o07",
"qX$::$X12X&;>&X99X$;>$X99.$>:$X99X$::$X97.$::$X95.$::$.90.$::$X9",
"9X*>>-X45X->>*.95X->>-X95X*>>*X99.*>>;Xq0X*>>*X95X->>*Xq0X*>>-X7",
"qX*>>;oeqo;>>*.09X->>-oq5o;>>*X09X->>;oeqo;>>-.95X*>>;o95o;>>-Xq",
"eX->>:$..$>>>-.99.*>>:$.X&:>>;.94X*>>:$..&:>>-.99X;>>:$..$:>>*Xq",
"e.$:>:$.X&;>:$.99.$:>:$X.$:>:$.94.$;>>$..$:>:$.00.$;>:$..$:>:$.q",
"9 o$*&o. o&;&X 99 o&*$X..X$*$X 55 o&;$X. o$-$o 99 o&*$o..o$-$o r",
"997.X.9o+r..X940994.X.9++e.XX724595X..e++9X.X9w9999.X.q+o0...wwr",
"47q99400req9997944554220qeq09944595359qeq09959w0qq5240rqq799qqer",
"90q544qqeq944796429e9420qq0q0944499550qreqq9qqeqqq9249q991449qeq",
"qqq44400q0949qw649qe09499q9qqe00qwq09qerrqqqeryeqw92149492790qqq",
"ye0449qqww9999q9950qq0qeq00090qrwqq900eeeq99qerqww99979497q90999",
"ee9459qqqweq995q0079eqeqqq009qerqq99590req99qeeewq69qqq579q99799",
"ee59XqqqqerX559q9949.eyryerX550qq959.5qe955.qq0e9w99.qq590wX7459",
"qq9o@X9qqeX#o459905o@.9ereX@o0q9955o@.0eq7X@oeeeqq9o@.q945X@o49q",
"q0X$*X9rwwX*&X9999X$*X9wreX*&X090qX$*Xqq94X*$Xq999.&*X9459X*$X79",
"qqo;-o9reqo;;o5wqqo;-o5qrqO;;o999qo;;oeq59O;;oq996o;;oq949o;;oqq",
"9X$::$Xrq.$::$Xqe.$::&XqrX$::&X99.$::$X05X$::$X55X$::$X51.$::$X0",
"9X*>>-Xw0X*>>-XqeX*>>*.9qX*>>*Xq0X*>>-Xq0X*>>;X0qX*>>-X52X*>>;X0",
"4X->>;o95o;>>-X0q.;>>;o99o;>>*.q5X*>>;oq0o;>>;.q9X;>>;o94o;>>-X0",
"9X*>>:$..&:>>*X99X->>:$X.$:>>;XqqX->>:$..$:>>*XrqX*>>:$..$:>>*X9",
"9.$:>:$..$;>:$.99.$;>:$..$:>:$X05.$:>:$XX$:>:$.eq.$:>:$.X$:>:$.5",
"9 o&*$O. o&-$o 99 o$*&X..X$;$X 09 o$*&X. o$;&X qe o$*$o..X&*$o 4",
"995.XXeo+5...ewrq95.X.w++qXX.q05949.X.9++2..Xe9qqeq.X.0o+4...994",
"4422359qe955qerrq9955499q949qe9149099q94,<19ee995qqq009772545549"
};
