/* XPM */
static char *result[] = {
/* columns rows colors chars-per-pixel */
"64 64 46 1 ",
"  c #005D00",
". c #005E00",
"X c #006100",
"o c #006300",
"O c DarkGreen",
"+ c #006500",
"@ c #006800",
"# c #006900",
"$ c #006A00",
"% c #006B00",
"& c #007000",
"* c #007700",
"= c #007800",
"- c #007C00",
"; c #007D00",
": c #007E00",
"> c #008000",
", c #008100",
"< c #008200",
"1 c #008300",
"2 c #008700",
"3 c #008900",
"4 c #009D00",
"5 c #009F00",
"6 c #00A000",
"7 c #00A200",
"8 c #00A300",
"9 c #00A400",
"0 c #00A500",
"q c #00A600",
"w c #00A700",
"e c #00A800",
"r c #00A900",
"t c #00AA00",
"y c #00AB00",
"u c #00AC00",
"i c #00AD00",
"p c #00AE00",
"a c #00AF00",
"s c #00B000",
"d c #00B100",
"f c #00B200",
"g c #00B300",
"h c #00B400",
"j c #00B500",
"k c #00B600",
/* pixels */
"ddair8wtureuuattysdsauypftttdt9wtt880e00tpsuypsaiyyuyutadfdsarrw",
"dduuttuuutwtryyuiaaspppafuapdiwttrq0rttrteeeypsdapiaaiuiaspaitwq",
"sdupuaupuutuuyiiittyuaasayupuiyauyyrtrurt9weyytpapuaaaipaaiuytrw",
"fatisgsayutttetrttiaaiuuuupsuutasaapsuuypryysiiyuiuiiypasaapyyui",
"ptruOdaiuytOautqttpaOapiuyuOaiuiasffOuuiaadOdautuauuOupadadOiusd",
"ter%*Oatut+=%uieuuf%*Oprty+=%fspaad%*Oahgh+=%ddauau%*Oauaa+=%adg",
"wt+->+t97w+>:+utas+->+irwe+>:+itui+->+adaa+>:+ipui+->+aiaa+>:+af",
"ta$1<$w76r$1<%uuia$1<$yw99$1<%aass$1<$sptt$1<%yyee$1<$aiaa$1<%uf",
"iO-22;+87O-22;+wwO-22;+ytO-22;+psO-22;+atO-22;+weO-22;+saO-22;+s",
"a+,33,+we+,33,+tr+,33,+ty+,33,+dd+,33,+fa+,33,+9w+,33,+sa+,33,+t",
"a+,33<$et$133,Ort+,33<$ia$133,Opa+,33<$ga$133,O8r+,33<$it$133,Ow",
"t+,332;oo;233,Opd+,332;oo;233,Oip+,332;oo;233,O7q+,332;oo;233,O9",
"uo-232-oo-232-orpo-232-oo-232-opdo-232-oo-232-oewo-232-oo-232-ow",
"u.#;,;#XX@;,;@ ua.#;,;#XX@;,;@ ag.#;,;#XX@;,;@ tt.#;,;#XX@;,;@ 7",
"ddioOod&&uoOouurytfoOot&&eoOoruiggaoOoi&&qoOopagsdsoOoi&&foOoee0",
"yiidgdatuuadaasuiudsrtqutuyte78wuaupahiyqetaasafdgdaaadsddatuipt",
"uspsdsu9tifgauuryeaiuutaiiytr90ruitupfiyryudsfappapuissdddayyypa",
"psddsiiypadgduutiyuuupaaapiteqweyyruuiiaauiafdayupuuusuuupupafdg",
"apuuippaasaapuurytaisshsayiuapsputwiutruatutppittuuuusuauttpspuu",
"auyupspapapyuuauiiayutatw0tuuwwrtrrpurwuutttyutuuspsiduiuwqwuuer",
"tttaOhdsasaOytpupuawOwuyewwOrq9wtrusOurttrtOypuauaahOspsiwwOyyew",
"daa%*Odaaa+=%rauptu%*Oytqe+=%86qpas%*Ouurr+=%sadads%*Oipit+=%ttt",
"ds+->+ghgp+>:+iupe+->+apyu+>:+7qua+->+rauu+>:+ghda+->+putt+>:+ya",
"jd$1<$sspt$1<%apit$1<$aurt$1<%0rud$1<$tsua$1<%dgat$1<$prrt$1<%ta",
"jO-22;+aaO-22;+dpO-22;+auO-22;+00O-22;+uuO-22;+apO-22;+ttO-22;+d",
"f+,33,+ap+,33,+at+,33,+ut+,33,+97+,33,+au+,33,+pu+,33,+tt+,33,+h",
"i+,33<$af$133,Oat+,33<$pu$133,O96+,33<$ss$133,Osa+,33<$rt$133,Oh",
"t+,332;oo;233,Oiu+,332;oo;233,Oe9+,332;oo;233,Odu+,332;oo;233,Oj",
"to-232-oo-232-oido-232-oo-232-outo-232-oo-232-outo-232-oo-232-oa",
"i.#;,;#XX@;,;@ sf.#;,;#XX@;,;@ au.#;,;#XX@;,;@ yy.#;,;#XX@;,;@ t",
"yttoOo9&&soOowrafgaoOot&&uoOohhhddpoOoa&&toOoyuytuuoOot&&poOodiw",
"utrwe0wuddapytyahhdauutadutwaasdadaaddairw0ruippaddieqwyyyrtpddu",
"trytueeruasauqtydddattysdutqiupuutweyuaspyetupuurutyrerrrwruiaap",
"padsfutqtussu9wrsagdyttaapaiatttrw900qtuutrusdiiiautretrewryupsd",
"apiiaue0ridst70eaadfipuaipaipruyr0qw09euuyuuspaaaauyuasittuauaad",
"upttrue8wtaat88edhggadapipsaauaauttue0wtyetrausafhdpppsutewtusfh",
"iuw0OuyrtuiOyqwtdggfOspiasaOuisiuytyOeeuytyOutpsdsuiOaiyq9wOpaaa",
"ipt%*Oatwr+=%wttsdd%*Oppad+=%aiuuay%*Ortw0+=%yiaaut%*Oyuur+=%uii",
"hp+->+sywe+>:+triu+->+euaf+>:+tuta+->+rt99+>:+yaap+->+wyiy+>:+uu",
"ha$1<$y89w$1<%reuu$1<$typp$1<%rteu$1<$yt8w$1<%ttty$1<$eufa$1<%ur",
"aO-22;+79O-22;+ttO-22;+rtO-22;+ttO-22;+ueO-22;+twO-22;+ruO-22;+t",
"u+,33,+qe+,33,+ue+,33,+uw+,33,+yt+,33,+pu+,33,+yw+,33,+ui+,33,+r",
"i+,33<$sa$133,Oue+,33<$iw$133,Out+,33<$da$133,Ote+,33<$uw$133,Oa",
"d+,332;oo;233,Ott+,332;oo;233,Oyw+,332;oo;233,Oyt+,332;oo;233,Op",
"do-232-oo-232-oyyo-232-oo-232-orqo-232-oo-232-ouuo-232-oo-232-oa",
"u.#;,;#XX@;,;@ yu.#;,;#XX@;,;@ ww.#;,;#XX@;,;@ ut.#;,;#XX@;,;@ g",
"rryoOoy&&foOoteuteqoOot&&doOor0qwtroOos&&toOouauyytoOoa&&uoOossd",
"qtattquuhdauyyyte0qrq99yasaptrqqwtw0quasaiuteyaiiue8qugapryuaadf",
"tpsrwwaadatwqyir00tdyw9uaaiautwwwtertuadfapupidaaptqwtayt8weupss",
"papq00iiaitwtpprqtafprwtupuasduupdautudhhspidhhdsdt98wuwt9rruppa",
"khi0qtasssuttuputruaaiasapupipaddsaiiusfdiytagfaadurtttqteiuuuyu",
"ddtewuauasdpttepiuytdadasaputisgapyteyifdauuiddgdattiaawttsuyttu",
"ssrtOaaaaddOrrrpuretOsgghdsOwwpsayrrOryfuewOiapsuauuOaieruaOeqet",
"aat%*Oyaad+=%qwitue%*Oudhd+=%upuyrw%*Opfit+=%asfair%*Oatwe+=%qti",
"ai+->+ydss+>:+rpuu+->+tdgd+>:+utuu+->+sarq+>:+autu+->+yewy+>:+yy",
"ai$1<$uhda$1<%waap$1<$eafa$1<%uyua$1<$dprt$1<%atty$1<$atwr$1<%aa",
"rO-22;+faO-22;+adO-22;+pfO-22;+ytO-22;+uwO-22;+wrO-22;+w9O-22;+u",
"t+,33,+su+,33,+ad+,33,+ta+,33,+au+,33,+si+,33,+up+,33,+w7+,33,+p",
"e+,33<$tr$133,Oii+,33<$tu$133,Opr+,33<$ai$133,Oau+,33<$t0$133,Ou",
"t+,332;oo;233,Oty+,332;oo;233,Osu+,332;oo;233,Ogi+,332;oo;233,Oy",
"uo-232-oo-232-oyto-232-oo-232-oieo-232-oo-232-ogao-232-oo-232-ow",
"u.#;,;#XX@;,;@ ut.#;,;#XX@;,;@ ut.#;,;#XX@;,;@ sf.#;,;#XX@;,;@ q",
"tyeoOos&&woOossfiuroOoa&&poOopuweeuoOoy&&9oOoduupdaoOoy&&qoOotte",
"00899rtiayewiddgaue0eqyuayetpau9wtuyuat0457tddytraiaiptee9w0ewer"
};
