/* XPM */
static char *result[] = {
/* columns rows colors chars-per-pixel */
"64 64 51 1 ",
"  c #C6C6C6",
". c gray78",
"X c #C8C8C8",
"o c #CACACA",
"O c #CBCBCB",
"+ c gray80",
"@ c #CDCDCD",
"# c gray81",
"$ c #D0D0D0",
"% c gray82",
"& c #D2D2D2",
"* c LightGray",
"= c gray83",
"- c #D5D5D5",
"; c gray84",
": c #D7D7D7",
"> c #D8D8D8",
", c gray85",
"< c #DADADA",
"1 c gray86",
"2 c gainsboro",
"3 c #DDDDDD",
"4 c gray87",
"5 c #DFDFDF",
"6 c gray88",
"7 c #E1E1E1",
"8 c #E2E2E2",
"9 c gray89",
"0 c #E4E4E4",
"q c gray90",
"w c #E6E6E6",
"e c #E7E7E7",
"r c gray91",
"t c #E9E9E9",
"y c #EAEAEA",
"u c gray92",
"i c #ECECEC",
"p c gray93",
"a c #EEEEEE",
"s c #EFEFEF",
"d c gray94",
"f c #F1F1F1",
"g c gray95",
"h c #F3F3F3",
"j c #F4F4F4",
"k c gray96",
"l c #F6F6F6",
"z c gray97",
"x c #F8F8F8",
"c c #F9F9F9",
"v c gray98",
/* pixels */
"fdy4>>efxxgi9qwiaafdgfsayiigjjggjjhfpyrufggjkzjjjkkjffgjhfuyugkl",
"hdi833rsjgpuwrtiasfdgffauuuadsssfssyeqqtasipsggfsssffggjjgsasfdd",
"jfaeq8tasitrrruassffjjgdutryttuusau099wtipteruiapuusfjgkkkggfsit",
"jsiwrtasar9889tisaafjkzguw0qw880papretuiiiw860ritq8rsjjkkkjgauui",
"auyt5pfsarw#89rpssfguzzkiq9=r060agfp5sssssy#47qiur9t0kjkzxkwtwyd",
"qey4w7fffi:,$qtiasfyiukhu9O44yeyfjh9r7aiip<,O9eaiyq2wujkkzar:0yh",
"9w<qy7sdfs5852assfusatjkp0X2qwggkgwqr2r0ey2072isai2eitfggjuy7&yd",
"qe2wyqdfjhq082iiuu9aaijka0X:0pxzkd980:q8qr6yiyfayt4yaifsppqyw<ta",
"u,7eut0fkuutq9<tt,9tpsazf:=>qshkg7teq3-ru0pgjs0w9#5tpp0ay2eut9<r",
"a28eer7ghayt84$ww-6wudaja&<2eadhfwaue62agagjha505O2euawdp5rpsy5u",
"s70086,pfiye86&et280eaiae@16taagftdfu06fjfjjfi5e7O<0ey9ffripfi5t",
"i5066754wst044&ry5880ut,o*20tatfswastqq9wpdhsawpt<8ttuuurutupi0u",
"a7q78994wpue75%9q,77495%o,50qe9sp4qteeq74epsdsugd9tuupprweqeeq2t",
"a567weq9qee85;+88#;547,;*3985>,ui<49899668uafaskkpipipir637w93,u",
"aas9w9a80a722rw768e224r14p7,=wrtytr,24setdrudxxxzjf9wrge6y274ppd",
"iisffputiuurupatrwyddgsssgsieqeetrtuppashhjgjzvvzfpuafhdpupaasgz",
"adffdpuriipyasfpuypfjkfffgsaiyyyttwryuasgjjffjxxkarwudgfdapiisjk",
"jgduuuiiaputpfgfsaasgzkkggsasspittwwqwtpsgsutpjzzstqrajkjfsaaaaa",
"ksuwtiiuuupuasfsssaafjjfsaaasfdauueq8qwruiirqrajkst89ygjkgjggfir",
"guw9ruyreryuasffsspisggspssffdsiretrw909wttwqwifjdy90esfgdghkfyw",
"urqq:yrrery2sfsaiaadthgssggtssueqeip2rewreu2trtpssuq@qiaaipwgspy",
"yyu405upuy-8rhsiyafshdzkkkasruw770pqy5iuyi0r9yryada255ssur:87uii",
"yu7er0dhda2isasuysaklhxxzkuie:858r7uiwdfssudu:0qra7qw7ggar-23-us",
"ruqiaygjgjyddypuigfljsxxxzsdy4q0wu9riyjgfgsgi:78qu9yiikhsr=:>-if",
"r,eppptkzhhgu9:yauhduewjzdhgpt2yu0tetuugfwfgp3 37:euutwsa:3>237h",
"y2wpuy7gzxjp8<&qu0gse82fkdghfguhfwyweyugfwgjf0$8q2ypu05ii:8600wj",
"s0ypt04fklde42=er2iuw2=ysyasfjdljaaterijjyglja2ry2yt8>$eu4weuytj",
"s0rue957uhse685tr:ypu73:4etufjhxxdgpupsddfjxvltau2re6>::7qtupiwd",
"u2quutqwuhpw797ap2tpu93:29etsfazzhkgfdfhhhlxvkuat=998234wtuusu4r",
"r&,qipeudfu031,aa2qer9444150tyejkghhghfgghkxzfeit=6tyeqrrqeru8=6",
"trr2wukgjk9:%wtuupu::,ie8r%:2dppajzdddzjgxhhajfiuuswtrgpts457y8,",
"iteyshlzkhueqttyeeeeragjduqtupreeafjjkkzkxlkfffsadfgdgggaayuye71",
"tttuaghhsueqriauw00eufkzfitssaq66wipsfjkkkhfasfgsaiuypsgddiur05,",
"0erpagfstw0qudgprqeusgjgsaajjfr99wryupfffaityagjsprq0tispddsur06",
"70wisfie900euadspuuaffautusjgstrtryyuudsarw9rigjfpw9qyuuusggfar9",
"ryuadsy99qeyippsfdaasayewufgfaaaauiidssut096qugkjdyeyipwqygzzjdi",
"ffddtsuwqru7iiyaddaa7auwqya7iuaaawtuwddiurw#wtfjkfar2psuypkhzjgg",
"xzkyy7urtp0irsiadfd9w7irer282yaau092ytsiyr<2<rsfgai:3,sffgdksggj",
"zkupi7utystgstfdsfwui0pw09&<1-iau0@5rtdspu265:aupr<12&sjzzdgp7sg",
"lgqry9ueriqyipkkjgiddqi908=36<iiyq@5wraiew,56<ittw234=pshgsdy4up",
"jweett5wq,9qushzkufjlp70q#77e97aa:15qt7u0#59q95rw&79q75ya0pst7:t",
"ktytui7tw-640ydxltdjxgwtt<ytuw7ii:22605e8O4wew5te:0epr5qq<ruw6-e",
"jtappi9py200eyazkwifjjisp9ippr0as286809ue=0tuw2r0-0pfa9w0,0e06&e",
"fwiupspw7eeetiazj0rsfdpwwusspr5ap<668et4,5eutw2tt5ysfse,:9tu06=y",
"u4eetupuwuusdhhxg9epspuwrpsfdu7ps799euu72qppe5=tu9usppt99usstq,p",
"w=47wtipuetifhkxg8qpat99risgfe,ti569wtq4>6uiq>%ti8qtrequpasduq2i",
"0et,59jpuf9wuxxkgsdut7u0ujudaseqyss457a64t42:90wria909gddgwwrdue",
"ttuuadjjhffsfjjgssgkgpetpfgjfi08eipuisspywrwerytrtypsglkjsasfar0",
"iadpppfgjjjgdfsiyufjfietpfsfsiewyapiafgdu00680yyrridgkzkfuisffpy",
"iasiyrafkzzhfaitttshjsiutytppaiuiaauishfpreqweippyupdhkkjgdgggff",
"ipayeqypjkzjgsauteisgfgdauuiaffdffstrtaautrw89eypuipfjjhjhjjjjkk",
"0euttryifjkjgfsatwtajjzgdyuusaddgfft09ruyurw00rippiafffsjkjffggj",
"0eyi5puuupdwghhfu00twjzzlfg0stipfghp:0wewe9#7qertuiswfaidgf0sdgj",
"qri9r0auuu0iphgsr894yazzlhtr9wyrapgrw:rerr&:&yppyty7w7uidhtr7psf",
"pi7ty0iyry0astsuw8$7ytjjhhtat2utuiwui5yeee:677sitt<98<tpgzaatwgj",
"pi6rr6tyypraa9tqq0:8rqpaparaiqsaiu9ya9prtt2wypgsut,64,usglfgaygj",
"0&5ete:tr5ettq2ry,9qeq2yt2quut0au2qpdp7te:7udftsp59qqq0sdtsjjhdz",
"8@2eui<rq:46682yu7yutw<ty<44685pt<wsjgwur:0pfdwss7rtsauda7yshjaj",
"6$6tpa6r7&:<285aa0ipur4ut::-:2,y0-wflgrut4rshdwsstdflxjjs4wufgag",
"t2wusde:.%&,262ia0iute92=:=*-;=yr2rfhdu79tppsi7piwglxlhr779wtitg",
"u7euuu9=+:<477,ti9utwqe2#$=,21,ai9tpute7wuptuq2ypwhxlgp979qwttws",
"i26ewq1;>39091=wt5qewee6*+:47>2sgyqe896qrytw9>=ru5ihgu411398q80g",
"rrt2:=q10gw5,rrttip90ukp8r:,2yupddi,##q8eg952uiuipsuura08i224sgk",
"0qere0qrsjgyweriyiysdxxxgspiuqqrpsuw676rifaaaafsppagkkjdpuyyyskc"
};
