/* XPM */
static char *result[] = {
/* columns rows colors chars-per-pixel */
"64 64 57 1 ",
"  c #008200",
". c #008300",
"X c #008700",
"o c #008A00",
"O c #008B00",
"+ c #008C00",
"@ c #008D00",
"# c #009200",
"$ c #009300",
"% c #009400",
"& c #009500",
"* c #009600",
"= c #009D00",
"- c #00A700",
"; c #00A800",
": c #00AD00",
"> c #00AE00",
", c #00AF00",
"< c #00B000",
"1 c #00B300",
"2 c #00B500",
"3 c #00B600",
"4 c #00B700",
"5 c #00BD00",
"6 c #00BF00",
"7 c #00DC00",
"8 c #00DE00",
"9 c #00E000",
"0 c #00E200",
"q c #00E300",
"w c #00E400",
"e c #00E500",
"r c #00E600",
"t c #00E700",
"y c #00E800",
"u c #00E900",
"i c #00EA00",
"p c #00EB00",
"a c #00EC00",
"s c #00ED00",
"d c #00EE00",
"f c #00EF00",
"g c #00F000",
"h c #00F100",
"j c #00F200",
"k c #00F300",
"l c #00F400",
"z c #00F500",
"x c #00F600",
"c c #00F700",
"v c #00F800",
"b c #00F900",
"n c #00FA00",
"m c #00FB00",
"M c #00FC00",
"N c #00FD00",
"B c #00FE00",
/* pixels */
"vczjawidgaphhlddfxcxlgfkbsddcdeusswwtpttskxhfkxljffhfgdzvbcxzaai",
"vvhgsdghgsusaffhjzzxkkkzbglkcjussaytassadpppfkxczkjzljhjzxkljsiy",
"xvgkhzhkghsggfjjjdsfhlzxzfhkhjflhffadahadripffdklkglzljklzjhfsau",
"bldjxnxlfhddspdaddjlljhhhgkxhhdlxlzkxhhfkaffxjjfhjhjjfklxzlkffhj",
"ksah+vzjhfs+lgdysdkl+zkjhfg+zjgjzxbb+ghjzlc+clhdhlhg+hklczv+jhxv",
"dpa&-+ldgd@;*gjpghb&-+kadf@;*bxkzzc&-+zmnm@;*cvlhzh&-+zgll@;*lcn",
"id@>1@srqu@1<@gdlx@>1@jaip@1<@jsgj@>1@lvll@1<@jkhj@>1@zjll@1<@lb",
"sl%43%u09a%43&ghjl%43%furr%43&lzxx%43%xkdd%43&ffpp%43%zjll%43&hb",
"j+>55,@w0+>55,@ii+>55,@fs+>55,@kx+>55,@ls+>55,@up+>55,@xl+>55,@x",
"z@2662@ip@2662@da@2662@df@2662@cv@2662@bl@2662@eu@2662@xl@2662@d",
"z@2663%pd%4662+ad@2663%jl%4662+kl@2663%nz%4662+wa@2663%js%4662+i",
"s@2665,OO,5662+kc@2665,OO,5662+jk@2665,OO,5662+0y@2665,OO,5662+e",
"ho>565:oo:565>Oako>565:oo:565>Okco>565:oo:565>Opio>565:oo:565>Ou",
"g.$,2,$XX#,2,# hl.$,2,$XX#,2,# zn.$,2,$XX#,2,# ds.$,2,$XX#,2,# q",
"vcjO+Oc==gO+OhhafdbO+Os==pO+OahjnnlO+Oj==yO+OkznxcxO+Oj==bO+Oppt",
"fjjcnvlsghlclzxgjhcxasyhdgfdpqwuhzhkzmjfypslzxlbvnvzlzvxvcldgjkd",
"hxkxcxgrsjbnlhhafpljghdzjjfsaetahjshkbjfafhcxblkklkhjxxcvclfffkl",
"kxccxjjfklvncggdjfhhhklllkjdpyupffaghjjzlhjlbvlfgkgggxghhkhkzbvn",
"lkhhjkklzxzzkggafdzjxxMxlfjgzkxkgsijgsahldgskkjsdhgggxhlgsdkxkgh",
"lgfhkxklkzkfhgzhjjlfgdlditsghiuadaakhaughdssfgdhgxkxjchjgiyighpa",
"dsdl+mcxlxl+fskgkhli+ihfpiu+ayridahx+gaddas+fkhlglzm+xkxjiu+ffpi",
"clz&-+czlz@;*algksh&-+fsyp@;*w9yklx&-+ggaa@;*xlvlcx&-+jkjd@;*dsd",
"vx@>1@nMnk@1<@jgkp@>1@zkfh@1<@0ygl@>1@alhg@1<@nmcz@>1@khdd@1<@fz",
"Nv%43%xxkd%43&lkjs%43%lhad%43&tahv%43%sxhl%43&vnzs%43%kaas%43&sz",
"N+>55,@ll+>55,@ck+>55,@zh+>55,@tt+>55,@hg+>55,@lk+>55,@ss+>55,@c",
"b@2662@lk@2662@zs@2662@gs@2662@r0@2662@lh@2662@kh@2662@sd@2662@m",
"j@2663%lb%4662+ls@2663%kg%4662+r9@2663%xx%4662+xl@2663%as%4662+M",
"d@2665,OO,5662+jg@2665,OO,5662+pr@2665,OO,5662+ch@2665,OO,5662+N",
"do>565:oo:565>Ojco>565:oo:565>Ohdo>565:oo:565>Ohso>565:oo:565>Ol",
"j.$,2,$XX#,2,# xb.$,2,$XX#,2,# zh.$,2,$XX#,2,# ff.$,2,$XX#,2,# d",
"fsdO+Oe==xO+OiazbnlO+Os==hO+OmmmcckO+Ol==sO+OfhfdggO+Od==kO+Ocju",
"gsaiptigcclkfsflMMczggdlchsulzxczclzvcljautahjkklvvjpyifffadkcch",
"safsgppahlxlhysfccczddfxvhdyjgkhgdupfhzxkfpdgkggagdfapaaaiagjzlk",
"klcxbgdysgxxheiaxznvfddzzkljlsddauettydhhsagxcjjjzhdapsapiafgkxv",
"lkjjzhptajvxsqtpllvbjkhzjkzjkahfatyitrphhfggxkllzzhfglxjsdhlhlzv",
"hkssagpwudlldwwpvmnnzclkjkxzlhllhddgptusfpdalhxlbmvkkkxhspidhxbm",
"jgit+hfasgj+fyudvnnb+xkjlxl+gjxjhfdf+pphfdf+gdkxcxgj+ljfyru+kzzz",
"jkd&-+lsia@;*idsxcc&-+kkzv@;*zjhglf&-+asut@;*fjzlhs&-+fgga@;*gjj",
"mk@>1@xfip@1<@sajg@>1@pgzb@1<@sgdl@>1@ader@1<@fllk@>1@ufjf@1<@hh",
"ml%43%fwru%43&apgg%43%sfkk%43&adpg%43%fswu%43&dddf%43%pgbl%43&ha",
"l+>55,@0r+>55,@ds+>55,@ad+>55,@ds+>55,@hp+>55,@di+>55,@ah+>55,@s",
"h@2662@yp@2662@gp@2662@gu@2662@fd@2662@kg@2662@fu@2662@gj@2662@a",
"j@2663%xz%4662+hp@2663%ji%4662+gs@2663%cl%4662+dp@2663%gi%4662+l",
"v@2665,OO,5662+dd@2665,OO,5662+fu@2665,OO,5662+fd@2665,OO,5662+k",
"co>565:oo:565>Offo>565:oo:565>Oayo>565:oo:565>Oggo>565:oo:565>Ol",
"h.$,2,$XX#,2,# fg.$,2,$XX#,2,# ui.$,2,$XX#,2,# hd.$,2,$XX#,2,# n",
"aafO+Of==bO+OspgdpyO+Od==cO+OatyusaO+Ox==dO+OglgffdO+Oz==hO+Oxxv",
"ydlssyghmczhfffsptyayeefzxlkdayyidutygzxljgspfljjhpwygnzkafglzvb",
"dkxaiulzclsiyfjattdcfirglzjzgsuiispashzcblkgkjclzkdyudzfdwuphkxx",
"kzkyttjjljsiskkayslbkaudhkhzxchhkvzhdhvmmxkjcmMvxcsewugisraagkkz",
"Bmjtyszxxxgdshkhdahlzjlxzkhkjklccxzjjhxbvjfdznbzlchasddyspjhhhfg",
"vcdpiglhzxvksspkjgfdclclxlkgdjxnzkfdpfjbclggjvcnczdsjzludsxgfsdg",
"xxad+zzzlvv+aaakgapd+xnnmvx+iikxlfaa+afbhpi+jzkxhzhg+zjpagl+pyps",
"zld&-+fzzc@;*yujsgp&-+gcMc@;*hkhfai&-+kbjd@;*zxblja&-+ldip@;*ydj",
"lj@>1@fvxx@1<@akgg@>1@dcnv@1<@hdhh@>1@xzay@1<@lgsg@>1@fpuf@1<@ff",
"lj%43%hmvl%43&izzk%43%pzbz%43&hfgz%43%vkas%43&lddf%43%lsua%43&zz",
"a+>55,@bz+>55,@zv+>55,@kb+>55,@fd+>55,@gi+>55,@ia+>55,@ir+>55,@g",
"s@2662@xh@2662@zc@2662@sz@2662@lh@2662@xj@2662@hk@2662@iq@2662@k",
"p@2663%da%4662+jj@2663%sg%4662+ka@2663%lj%4662+lg@2663%dt%4662+h",
"d@2665,OO,5662+df@2665,OO,5662+xg@2665,OO,5662+nj@2665,OO,5662+f",
"go>565:oo:565>Ofso>565:oo:565>Ojpo>565:oo:565>Onzo>565:oo:565>Oi",
"g.$,2,$XX#,2,# hs.$,2,$XX#,2,# gd.$,2,$XX#,2,# xb.$,2,$XX#,2,# y",
"dfpO+Ox==iO+OxxbjgaO+Oz==kO+OkguppgO+Of==eO+OchhkvlO+Of==yO+Ossp",
"ttwrradjlfpijcvnzgptpyfgzfpskzgeishfhlst780dcvfdazjzjkspprutpipa"
};
