/* XPM */
static char *_1be98ef310340e0fe244b04247da4717c5TlnFwVFsbkcra[] = {
/* columns rows colors chars-per-pixel */
"64 64 14 1 ",
"  c black",
". c #7E7E7E",
"X c #DE0000",
"o c red",
"O c #FF6767",
"+ c #00DC15",
"@ c #00FF18",
"# c #68FF76",
"$ c #00B2DE",
"% c #00CDFF",
"& c #43D9FF",
"* c #9F9F9F",
"= c gray74",
"- c white",
/* pixels */
"----------------------------------------------------------------",
"----------------------------------------------------------------",
"-----------------   --------------------------------------------",
"---------------  === -------------------------------------------",
"-------------- ==.  --------------------------------------------",
"------------- =*. ----------------------------------------------",
"------------- ** -----------------------------------------------",
"------------- ** -----------------------------------------------",
"-----   ----- **                                         -------",
"----- =       ** OOOOOO OOOOOO OOOOOO OOOOOO OOOOOO OOOOO  -----",
"----- * ===== ** oooooo oooooo oooooo oooooo oooooo ooooooo ----",
"----- .       ** XXXXXX XXXXXX XXXXXX XXXXXX XXXXXX XXXXX  -----",
"-----   ----- **                                         -------",
"------------- ** -----------------------------------------------",
"------------- ** -----------------------------------------------",
"------------- .*= ----------------------------------------------",
"-------------- ..=  --------------------------------------------",
"---------------  .== -------------------------------------------",
"-----------------   --------------------------------------------",
"----------------------------------------------------------------",
"----------------------------------------------------------------",
"----------------------------------------------------------------",
"----------------------------------------------------------------",
"-----------------   --------------------------------------------",
"---------------  === -------------------------------------------",
"-------------- ==.  --------------------------------------------",
"------------- =*. ----------------------------------------------",
"------------- ** -----------------------------------------------",
"------------- ** -----------------------------------------------",
"-----   ----- **                                         -------",
"----- =       ** &&&&&& &&&&&& &&&&&& &&&&&& &&&&&& &&&&&  -----",
"----- * ===== ** %%%%%% %%%%%% %%%%%% %%%%%% %%%%%% %%%%%%% ----",
"----- .       ** $$$$$$ $$$$$$ $$$$$$ $$$$$$ $$$$$$ $$$$$  -----",
"-----   ----- **                                         -------",
"------------- ** -----------------------------------------------",
"------------- ** -----------------------------------------------",
"------------- .*= ----------------------------------------------",
"-------------- ..=  --------------------------------------------",
"---------------  .== -------------------------------------------",
"-----------------   --------------------------------------------",
"----------------------------------------------------------------",
"----------------------------------------------------------------",
"----------------------------------------------------------------",
"----------------------------------------------------------------",
"-----------------   --------------------------------------------",
"---------------  === -------------------------------------------",
"-------------- ==.  --------------------------------------------",
"------------- =*. ----------------------------------------------",
"------------- ** -----------------------------------------------",
"------------- ** -----------------------------------------------",
"-----   ----- **                                         -------",
"----- =       ** ###### ###### ###### ###### ###### #####  -----",
"----- * ===== ** @@@@@@ @@@@@@ @@@@@@ @@@@@@ @@@@@@ @@@@@@@ ----",
"----- .       ** ++++++ ++++++ ++++++ ++++++ ++++++ +++++  -----",
"-----   ----- **                                         -------",
"------------- ** -----------------------------------------------",
"------------- ** -----------------------------------------------",
"------------- .*= ----------------------------------------------",
"-------------- ..=  --------------------------------------------",
"---------------  .== -------------------------------------------",
"-----------------   --------------------------------------------",
"----------------------------------------------------------------",
"----------------------------------------------------------------",
"----------------------------------------------------------------"
};
