/* XPM */
static char *_653c5061e404aedf58862db89fe855bZkngDitLfG336vDl[] = {
/* columns rows colors chars-per-pixel */
"64 64 176 2 ",
"   c None",
".  c #017F00",
"X  c #0E7C02",
"o  c #127B02",
"O  c #286E05",
"+  c #3E6508",
"@  c #3F6F08",
"#  c #247205",
"$  c #287707",
"%  c #217B04",
"&  c #3E720A",
"*  c #5B590C",
"=  c #62560D",
"-  c #6D5F12",
";  c #4D6E0A",
":  c #457409",
">  c #4D700A",
",  c #4B7C10",
"<  c #786F1F",
"1  c #736718",
"2  c #8C4614",
"3  c #8B4817",
"4  c #8D4A19",
"5  c #854213",
"6  c #934B17",
"7  c #9D4E16",
"8  c #934D1A",
"9  c #96521D",
"0  c #9B521C",
"q  c #A2541B",
"w  c #AA5619",
"e  c #A4581F",
"r  c #AD5A1D",
"t  c #816E18",
"y  c #85731E",
"u  c #925322",
"i  c #9B5623",
"p  c #9A5A25",
"a  c #A45B24",
"s  c #AA5E25",
"d  c #AD6127",
"f  c #A4612B",
"g  c #AD632B",
"h  c #AA6C2C",
"j  c #B36326",
"k  c #B2652A",
"l  c #B4692E",
"z  c #B96A2E",
"x  c #AB6833",
"c  c #B56C33",
"v  c #BA6E32",
"b  c #BB7234",
"n  c #BB753B",
"m  c #B57538",
"M  c #C37335",
"N  c #C97637",
"B  c #C47639",
"V  c #C2793D",
"C  c #CA7B3D",
"Z  c #BA7741",
"A  c #C47E42",
"S  c #C87F42",
"D  c #008200",
"F  c #0B8401",
"G  c #018B00",
"H  c #0A8E02",
"J  c #148602",
"K  c #158C04",
"L  c #1C8C04",
"P  c #1F8808",
"I  c #1E8205",
"U  c #019400",
"Y  c #0B9302",
"T  c #019B00",
"R  c #0B9B02",
"E  c #139303",
"W  c #1D9405",
"Q  c #129D02",
"!  c #1B9B05",
"~  c #1F9E08",
"^  c #238505",
"/  c #2A8106",
"(  c #2A8805",
")  c #2C8208",
"_  c #238C09",
"`  c #258E05",
"'  c #30890B",
"]  c #3D8A0C",
"[  c #229C06",
"{  c #2A9D05",
"}  c #239409",
"|  c #2A950B",
" . c #2B9F0B",
".. c #349F0E",
"X. c #3D8711",
"o. c #01A300",
"O. c #0CA402",
"+. c #01AC00",
"@. c #0BAC02",
"#. c #14A404",
"$. c #18A703",
"%. c #1BA306",
"&. c #14AE02",
"*. c #14AB03",
"=. c #1EA904",
"-. c #1CAC08",
";. c #00B100",
":. c #00B300",
">. c #02B000",
",. c #07B100",
"<. c #04B200",
"1. c #00B400",
"2. c #00B600",
"3. c #02B500",
"4. c #06B501",
"5. c #01B400",
"6. c #0BB301",
"7. c #00B800",
"8. c #00BB00",
"9. c #00BC00",
"0. c #00BE00",
"q. c #05BD00",
"w. c #02BB00",
"e. c #0BBA01",
"r. c #0BBB01",
"t. c #16B003",
"y. c #22A604",
"u. c #23A105",
"i. c #21A804",
"p. c #24A20A",
"a. c #29A00A",
"s. c #27AB08",
"d. c #28AB0A",
"f. c #3DA10F",
"g. c #45840C",
"h. c #458A0D",
"j. c #44990F",
"k. c #488612",
"l. c #498D11",
"z. c #548D15",
"x. c #578115",
"c. c #409011",
"v. c #549517",
"b. c #6B811A",
"n. c #47A414",
"m. c #00C100",
"M. c #00C300",
"N. c #00C200",
"B. c #05C200",
"V. c #00C700",
"C. c #01C300",
"Z. c #00C800",
"A. c #00C800",
"S. c #909B28",
"D. c #D6823E",
"F. c #C48045",
"G. c #CB8245",
"H. c #CB894D",
"J. c #DB8947",
"K. c #DE8C49",
"L. c #D28848",
"P. c #DC934F",
"I. c #CB8D51",
"U. c #CF9556",
"Y. c #D49353",
"T. c #DB9554",
"R. c #DB9C5B",
"E. c #E49C5A",
"W. c #E89D5A",
"Q. c #E59653",
"!. c #E6A05D",
"~. c #ECA25E",
"^. c #E5A661",
"/. c #ECA560",
"(. c #EFA963",
"). c #F0A460",
/* pixels */
"                                                                                                                                ",
"                                                                                                                                ",
"                                                                                                                                ",
"                                                                                                                                ",
"                                                                                                                                ",
"                                                                                                                                ",
"                                                                                                                                ",
"                                                                                                                                ",
"                                                                                                                                ",
"                                                            D D D .                                                             ",
"                                                            D . D .                                                             ",
"                                                        . D . D . D . D                                                         ",
"                                                        . D .     D D D                                                         ",
"                                                        D D D . D . D D                                                         ",
"                                                      D G G +.D . o.D D D                                                       ",
"                                                      . 2.U +.G G o.G T .                                                       ",
"                                                .   Z.. o.o.D U ;.D G T D V.  .                                                 ",
"                                              D D   D G G o.G T T D T D G D   D D                                               ",
"                                              D D D D o.D 9.D U D T +.D T D D . D                                               ",
"                                              . D D G D G D D G D D D D D D . D D                                               ",
"                                            D   . D . . D . D G G . . D . . D .   .                                             ",
"                                          D . G G T D U F O X o o X O F U D G . G . D                                           ",
"                                          D . 7.o.7.D U o + = * * = + o U . ;.U T D .                                           ",
"                                          7.D o.M.G o.T . % $.7.9.$.% . G G D 9.D D U                                           ",
"                                            ;.+.T G o.D U # O.2.M.<.# D D U D G G T                                             ",
"                                  Z.Z.    +.G ;.+.D Y G o.T T o.+.+.+.T D Y . T o.G T     Z.Z.                                  ",
"                                Z.Z.Z.Z.  G G 7.D D G J o.o.o.F F +.M.+.J F D D 2.G G   Z.Z.Z.Z.                                ",
"                                Z.Z.Z.Z.  D G U D o . H T +.;.;.<.7.;.<.Y D o D U G D   Z.Z.Z.Z.                                ",
"                              Z.Z.  Z.Z.Z.D G D   . . H G o.R &.*.F G T U . .   D H D Z.Z.Z.  Z.Z.                              ",
"                              Z.T Z.Z.Z.2.%.. . . D . G D O.R u.! F G G R D . D D D ! 2.Z.Z.Z.T Z.                              ",
"                          G   Z.G Z.Z.B.&.Y Y U D . D T o.@.| L ^ ^ E T G D D D G Y R t.B.Z.Z.G Z.  D                           ",
"                        D D 9.D D G Z.Z.@.<.2.,.L   o.7.q.d., X F & d.<.U T   J <.;.<.@.Z.Z.G D D 9.G D                         ",
"                        D D U D +.D Z.+.M.M.e.e.$.-.:.+.@.@._ $ $ o H H U o.$.%.e.e.M.M.;.V.D +.D U . .                         ",
"                        . . D   D D D U Z.Z.i.y.q.q.@.  v.*.O.H H O.#.l.  O.+.7.y.i.Z.Z.G G D D   D . D                         ",
"                          D D D D G D G Z.o.9.B.e.8.4.4.-.~ R K W O.! %.@.@.2.t.B.M.7.Z.G D G . D D D                           ",
"                        D . D D . U D D ;.o.o.2.o.T Y W } ~ #.Q Q #.%.E W Y T +.7.M.7.M.T U o.D D D D .                         ",
"                            ;.  T U ;.U o.T G T U U Y J P P _ #.#.} W L K R T U T ;.+.7.;.7.2.o.  ;.                            ",
"                          V.V.D U U U 7.G G D U U U G D K Y ~ ) / %.O.E D G T U T T T ;.M.7.;.M.G V.M.                          ",
"                          Z.Z.U U G U G G G o.U G D . G U Y ! g.] $.O.T U D G U U o.T +.+.9.U 2.+.V.Z.                          ",
"                          Z.Z.7.: +.;.o.o.U D T G G G H Y H } +.2.! R R U U U G T G U V.9.9.M.: V.Z.Z.                          ",
"                            M.<.r.9.6.,.9.+.T T T U U T | } +.@.6.+.} a.o.U U T o.T +.V.r.e.B.r.<.9.                            ",
"                          +.+.G e.q.=.{ r.y.7.;.2.+.T T $.%.7.-.t.o.=.$.U o.;.2.2.7.i.r.u.=.q.r.U +.+.                          ",
"                          G T G 7.R B.{ ,.T G Y q.M.2.2.p.7.7.m.+.U U  .o.+.9.7.Y G Y <.{ B.R 7.G T G                           ",
"                      D   o.U 2.G G M.,.O.G G R r.q.7.2.X.V.6.m.T O.U k.T U 4.r.R G G o.,.9.G U 2.U o.  D                       ",
"                        G T T +.G o.U +.o.U U Y Q u.O.M.<.V.T T U T 2.U U H [ Q T U Y o.+.U o.G o.T T D                         ",
"                      D G U G +.T 2.G U o.+.R F F o & 9.<.<.T U U U Y H T @ % F F R +.o.U G 2.T +.U U G D                       ",
"                        G U T o.T   T G D D D G H Y } ( | e.O.@.o.R R ' $ ^ Y G G D D G G o.  T o.U T G                         ",
"                                  D G     D D T U T Q > X.x.] g.g.h.x.l.> E T U U D D     D D                                   ",
"                                          +.o.T o.U o.V...< 1 - - t y f.B.o.U o.T o.o.                                          ",
"                                            o.+.+.+.M.V...z.u 9 3 0 z.f.V.M.+.o.+.o.                                            ",
"                                            7.;.2.9.V.Z.n.n.p 4 3 9 j.f.Z.Z.9.2.2.7.                                            ",
"                                              V.M.V.Z.  L.B s 8 8 4 i p   Z.V.M.V.                                              ",
"                                                        S.M d 8 0 0 a b.                                                        ",
"                                                        m v s 0 8 9 a h                                                         ",
"                                                      n c l a 4 3 8 d v C                                                       ",
"                                                    F.m c f a 5 5 4 s M C L.                                                    ",
"                                                  Y.S A N j r 2 7 6 s c C G.G.                                                  ",
"                                                R.Y.S A v s r 7 7 6 q v C K.G.L.                                                ",
"                                              !.U.I.A n k a r w w 7 0 s M S Z H.I.                                              ",
"                                            (.!.Y.H.A s a 0 q q q 6 6 8 s B S T.Q./.                                            ",
"                                          (.~.!.Y.Z v s k k j q q 8 u 4 u k S Q.E.~.~.                                          ",
"                                          ~.(.~.P.B z s z v k q 6 8 u u i k N K.~.~.).~.                                        ",
"                                          !.R.T.V c c n n z s 0 6 8 a a s k g v H.E./.~.                                        ",
"                                          !.U.Z f v B S x a 9 8 8 0 a l n x i u n Y.W.E.                                        "
};
