/* XPM */
static char *_b90be22e9ec46acd412f72168d2901euKxi6IATPCygykMc[] = {
/* columns rows colors chars-per-pixel */
"64 64 107 2 ",
"   c None",
".  c #864516",
"X  c #8B4513",
"o  c #8D4816",
"O  c #864719",
"+  c #8C4919",
"@  c #934B17",
"#  c #9C4E16",
"$  c #934D1A",
"%  c #994F19",
"&  c #97511D",
"*  c #9B521C",
"=  c #A2551C",
"-  c #AA5619",
";  c #A4581F",
":  c #AC591D",
">  c #935322",
",  c #9A5623",
"<  c #9D5925",
"1  c #975B2B",
"2  c #9D5C2A",
"3  c #A45B24",
"4  c #AA5D23",
"5  c #A35D28",
"6  c #A85F29",
"7  c #AD6027",
"8  c #A5612C",
"9  c #AD632B",
"0  c #B36326",
"q  c #B2652A",
"w  c #B5692E",
"e  c #B96B2E",
"r  c #AC6631",
"t  c #AD6933",
"y  c #B36B32",
"u  c #BA6E32",
"i  c #BD7136",
"p  c #BA7235",
"a  c #B4733B",
"s  c #BA7138",
"d  c #B8753C",
"f  c #BC763C",
"g  c #C26F31",
"h  c #C37031",
"j  c #C07033",
"k  c #C47335",
"l  c #C47636",
"z  c #CA7333",
"x  c #C97637",
"c  c #C07538",
"v  c #C17539",
"b  c #C47739",
"n  c #C67739",
"m  c #C37A3D",
"M  c #C37A3F",
"N  c #C2793C",
"B  c #CA7A3B",
"V  c #C97A3C",
"C  c #C87C3F",
"Z  c #CD7D3C",
"A  c #CE7C3C",
"S  c #BA7741",
"D  c #C37C42",
"F  c #C77E44",
"G  c #C47F42",
"H  c #C87F42",
"J  c #D4803D",
"K  c #D7843F",
"L  c #DC843E",
"P  c #C48045",
"I  c #CE8142",
"U  c #CA8146",
"Y  c #C98246",
"T  c #CB8246",
"R  c #CC8347",
"E  c #C9884C",
"W  c #CA894C",
"Q  c #CF8A4E",
"!  c #D48544",
"~  c #DB8947",
"^  c #D08A4B",
"/  c #DE8C49",
"(  c #DC934F",
")  c #CA8D50",
"_  c #CD8D51",
"`  c #CA8D51",
"'  c #CF9556",
"]  c #D29151",
"[  c #D59554",
"{  c #D49456",
"}  c #D49052",
"|  c #DB9353",
" . c #DE9757",
".. c #DA9553",
"X. c #DB9D5B",
"o. c #DA9B5A",
"O. c #E59653",
"+. c #E09E5C",
"@. c #E59B5A",
"#. c #E89D5A",
"$. c #E6A05D",
"%. c #ECA25E",
"&. c #E5A661",
"*. c #EEA460",
"=. c #ECA560",
"-. c #EFA963",
";. c #F0A460",
/* pixels */
"                                                                                                                                ",
"                                                                                                                                ",
"                                                                                                                                ",
"                                                                                                                                ",
"                                                                                                                                ",
"                                                                                                                                ",
"                                                                                                                                ",
"                                                                                                                                ",
"                                              X X                         X X                                                   ",
"                                              X X                       X X X                                                   ",
"                                              X X                       X X                                                     ",
"                                              X X                     X X                                                       ",
"                                              X X                   X X                                                         ",
"                                              X X                 X X                                                           ",
"                                              X X               X X X                                                           ",
"                                            X X X X           X X X                           X X                               ",
"                X X           X X             X X X           X X             X X           X X X           X X                 ",
"                X X X         X X             X X X X         X X           X X           X X X           X X X                 ",
"                  X X X       X X               X X X         X X           X X         X X X           X X X                   ",
"                    X X X     X X               X X X X       X X         X X         X X X           X X X                     ",
"                      X X X   X X                 X X X       X X         X X       X X X           X X X                       ",
"                        X X X X X                 X X X X     X X       X X       X X X           X X X                         ",
"                          X X X X                 X X X X X   X X       X X     X X X X         X X X                           ",
"                            X X X X                 X X X X X X X     X X     X X X X X X X X X X X                             ",
"                            X X X X X X X           X X X X X X X     X X   X X X X X X X X X X X                               ",
"                              X X X X X X X X         X X X X X X   X X   X X X X                                               ",
"                                    X X X X X X X X   X X X X X X X X X X X X X                                                 ",
"                                        X X X X X X X X X X X X X X X X X X X                                                   ",
"                                          X X X X X X X @ & * % % # % % X X                                                     ",
"                                              X X X X X , 6 7 ; * * 3 & X                                                       ",
"                                                  X X X < 9 q : - = 0 3                                                         ",
"                                                    X X 6 9 0 4 : $ 6 9                                                         ",
"                                                        r w 0 4 ; % 6 9                                                         ",
"                                                        u r 7 , $ + , 8                                                         ",
"                                                        v r 3 O . $ , 2                                                         ",
"                                                        A u < O O $ , 5                                                         ",
"                                                        b u 5 $ @ * 6 w                                                         ",
"                                                        i u 3 & $ * 7 w                                                         ",
"                                                        t y 0 ; * * 7 w                                                         ",
"                                                        r w q ; * * 6 w                                                         ",
"                                                        t 9 7 3 * * 6 q                                                         ",
"                                                        r 8 1 $ o & 6 9                                                         ",
"                                                        8 2 > & $ ; 7 w                                                         ",
"                                                        8 2 > * % : q e                                                         ",
"                                                        r 8 8 * @ : q z                                                         ",
"                                                        w r * * * 4 9 h                                                         ",
"                                                        p y < & @ ; 7 h                                                         ",
"                                                        8 1 & & & ; 7 q                                                         ",
"                                                        1 2 , + + : 6 w                                                         ",
"                                                        1 1 > & + & 3 6                                                         ",
"                                                        p w < $ o & 3 9                                                         ",
"                                                        K c 6 + $ + , 1                                                         ",
"                                                        L l 7 & * & 4 6                                                         ",
"                                                        p p 7 & $ % 6 r                                                         ",
"                                                      d y r 4 o o $ 6 g V                                                       ",
"                                                    Y a y 9 3 . . @ 4 u Z !                                                     ",
"                                                  } F H x 0 : X # @ 6 e B I T                                                   ",
"                                                X.[ T D u 4 : # # @ = w J ~ U ^                                                 ",
"                                              $.' ) D s q 3 : - - @ # 6 g H S E `                                               ",
"                                            -.$.[ E N 9 3 * ; = = % @ & 7 v F | O.=.                                            ",
"                                          $.-.$.} d u 6 0 q 0 = = @ > O > w M O.@.#.*.                                          ",
"                                          %.-.%.| c w q u u 0 = @ $ > > , 0 x / #.=.=.*.                                        ",
"                                          %.' o.f u w p u y 4 * o $ 3 9 r 9 q u ^ @.=.%.                                        ",
"                                          $.) J 8 p c Y r 9 & $ + = 3 r u r , > d ..#.@.                                        "
};
