/* XPM */
static char *d31fb4c204694c81e1e440ee0fe1e43fUwc4HkRMMnbP5EdL[] = {
/* columns rows colors chars-per-pixel */
"64 64 168 2 ",
"   c None",
".  c #037E00",
"X  c #0A7C01",
"o  c #157703",
"O  c #1B7403",
"+  c #137B02",
"@  c #1C7C04",
"#  c #266F05",
"$  c #2B6E05",
"%  c #386707",
"&  c #356907",
"*  c #3D6508",
"=  c #237204",
"-  c #2C7305",
";  c #227A04",
":  c #2D7A06",
">  c #347407",
",  c #387507",
"<  c #377907",
"1  c #3A7907",
"2  c #3E7708",
"3  c #4D5F0A",
"4  c #545E0B",
"5  c #6C510E",
"6  c #72540F",
"7  c #73590F",
"8  c #7F4A11",
"9  c #785610",
"0  c #755910",
"q  c #426309",
"w  c #4B610A",
"e  c #426F09",
"r  c #50660B",
"t  c #5E6D0C",
"y  c #427009",
"u  c #487609",
"i  c #4C7D0A",
"p  c #5C7E0E",
"a  c #6F7214",
"s  c #864516",
"d  c #8A4613",
"f  c #8D4816",
"g  c #864719",
"h  c #8C4919",
"j  c #934B17",
"k  c #9D4E16",
"l  c #934D1A",
"z  c #994F1A",
"x  c #8F5819",
"c  c #97511D",
"v  c #9B521C",
"b  c #9C5A1A",
"n  c #A2541C",
"m  c #AA5619",
"M  c #A35A1E",
"N  c #AC5A1D",
"B  c #85641B",
"V  c #8D691D",
"C  c #9F601E",
"Z  c #935322",
"A  c #9A5623",
"S  c #935F21",
"D  c #9D5925",
"F  c #975B2B",
"G  c #9D5C2A",
"H  c #A45B24",
"J  c #AA5D23",
"K  c #A25D28",
"L  c #A85F29",
"P  c #8D6D22",
"I  c #986021",
"U  c #A26723",
"Y  c #AC6126",
"T  c #A5612C",
"R  c #AD632B",
"E  c #B36326",
"W  c #B2652B",
"Q  c #B5692E",
"!  c #B96B2E",
"~  c #AC6631",
"^  c #AD6933",
"/  c #B36B32",
"(  c #BA6E32",
")  c #BC7136",
"_  c #B4733B",
"`  c #BB753B",
"'  c #C26F31",
"]  c #C37234",
"[  c #CA7535",
"{  c #C37639",
"}  c #C2793D",
"|  c #CB7B3C",
" . c #BA7741",
".. c #C47E42",
"X. c #C87F42",
"o. c #018200",
"O. c #088301",
"+. c #018B00",
"@. c #0C8D01",
"#. c #148302",
"$. c #1D8604",
"%. c #168D03",
"&. c #188B03",
"*. c #019300",
"=. c #0B9301",
"-. c #019B00",
";. c #0B9B01",
":. c #129502",
">. c #1E9404",
",. c #149B02",
"<. c #1E9904",
"1. c #228404",
"2. c #2C8406",
"3. c #238804",
"4. c #2A8F05",
"5. c #308706",
"6. c #338D07",
"7. c #3B8F08",
"8. c #239304",
"9. c #2A9405",
"0. c #239A04",
"q. c #2B9B05",
"w. c #319906",
"e. c #3E9509",
"r. c #01A400",
"t. c #0CA401",
"y. c #01AB00",
"u. c #09AC01",
"i. c #13A202",
"p. c #1BA203",
"a. c #13AC02",
"s. c #1CAB03",
"d. c #01B300",
"f. c #0CB301",
"g. c #01BB00",
"h. c #0ABC01",
"j. c #14B202",
"k. c #22A504",
"l. c #438609",
"z. c #488109",
"x. c #478B0B",
"c. c #00C400",
"v. c #08C001",
"b. c #00C800",
"n. c #D6823E",
"m. c #DC843E",
"M. c #C48045",
"N. c #CB8245",
"B. c #CB894D",
"V. c #D48544",
"C. c #DB8947",
"Z. c #D08A4B",
"A. c #DE8C49",
"S. c #DC934F",
"D. c #CB8D51",
"F. c #CF9556",
"G. c #D49353",
"H. c #DB9554",
"J. c #DB9C5B",
"K. c #E59653",
"L. c #E49C5A",
"P. c #E89D5A",
"I. c #E6A05D",
"U. c #ECA25E",
"Y. c #E5A661",
"T. c #ECA560",
"R. c #EFA963",
"E. c #F0A460",
/* pixels */
"                                                                                                                                ",
"                                                                                                                                ",
"                                                        b.b.        b.b.                                                        ",
"                              b.                    b.  b.b.b.    b.b.b.  b.                    b.                              ",
"                              b.    b.      o.      b.b.b.b.b.b.b.b.b.b.b.b.      o.      b.    b.                              ",
"                            b.  b.  b.b.    o.  . r.b.b.b.  b.b.b.b.  b.b.b.c.o.  .     b.b.  b.  b.                            ",
"                            b.    g.b.b.  o.o.. o.-.d.b.b.b.g.b.b.c.b.b.b.g.g.. . o.o.  b.b.-.    b.                            ",
"                  o.o.r.b.b.d.b.  c.c.y.+..   . + -.y.b.b.b.-.b.b.g.b.b.b.y.o.=.o.  . o.y.g.+.  b.*.b.b.g.-.o.                  ",
"                  o.*.-.g.y.y.g.y.d.r.*.o.o.X * . r.r.c.b.-.-.r.d.r.r.b.g.y.t.o.  o.. o.o.o.+.o.g.*.*.b.g.g.o.                  ",
"              -.. r.r.g.r.r.*.*.*.r.*.*.+.o.. . X . d.y.b.+.*.+.*.+.*.b.g.a.#.+.o.. o.o.o.o.*.+.+.o.y.d.c.d.g.o.d.              ",
"              o.*.r.  y.r.r.y.-.+.+.+.+.o.o.X X X +.*.*.*.+.o.o.o.+.r.u.y.i.t.o.-.. o.o.*.+.o.+.+.y.g.d.d.  g.y.+.              ",
"              o.-.-.y.g.c.g.y.y.*.+.*.*.+.o.X = @ =.+.o.o.*.+.+.*.r.d.=.O.@.d.r.+.o.+.+.y.r.-.o.+.g.g.g.c.g.d.d..               ",
"            o.+.-.*.d.g.y.d.y.d.r.*.+.+.+.+.o.o +.*.+.+.*.-.r.o.+.u.:.,.u.y.d.-.o.+.r.-.-.y.r.+.y.d.y.g.g.g.*.y.-.o.            ",
"            o.  g.d.c.c.r.y.g.d.r.+.+.+.*.+.o.o.O.o.o.-.r.y.y.+.;.p.9.<.r.-.*.*.*.-.y.y.-.y.-.r.g.y.y.y.c.b.-.c.  o.            ",
"          o.. o.r.d.d.b.c.g.d.r.+.*.+.-.-.o.o.o.#.o.o.*.    -.=.;.;.5.r.r.*.*.*.*.r.*.y.r.r.-.-.r.r.r.c.b.*.*.*.o.o..           ",
"          . o.. +.*.*.d.g.d.r.g.y.y.-.*.r.o.@.o > + o.+.*.o.o.+ @ @.+.*.+.+.+.$.o.*.+.y.r.y.u.*.r.*.r.g.g.o.*.o.o.o.o.          ",
"      o.. . o.. . . o.*.c.g.@.d.k.g.*.o.o.o.. O o.o . o.o.*.o.$ $ +.*.o.o.o.X o.+ o.*.*.*.-.r.0.O.O.d.c.d.o.. . o.. o.. o.      ",
"      o.o.o.o.. o.. +.*.r.b.d.@ u.y.+.d.o.+.r.X X = O +.o.+.X o o X -.-.*.O.o X . +.+.o.+.+ @.=.X r.b.d.y.*.. =.. o.. o.o.      ",
"          o.o.. o.#.@.> y.y.g.t.<.r.r.o.. o.g.X $ t.o.t.*.+.o.$ - O.-.y.d.*.@.= . *.o.. $ + #.;.r.g.r.y.1 f.%.*.o.o..           ",
"              o.o.*.=.: y.*.h.j.a.;.-.y.o.d.d.b.1.u.;.@.y.+.=.%.%.u.-.g.y.;.*.>.r.*.+.X 1 ; #.y.g.c.r.d.2.u.y.o.o.              ",
"              o.o.+.*.$.2.3.t.*.,.;.r.-.. g.o.g.;.y.h.+.&.-.=.3.<.u.y.y.t.y.*.*.*.o.;.O #.+.o.r.d.d.8.9.<.r.-.+.o.              ",
"              o.o.+.  @.: 9.+.y.-.-.+.g.d.d.d.o.b.y.j.$.0.r.t.i.,.t.g.f.,.f.-.g.. o.=.=.u.+.o.y.d.;.9.2.*.  *.*.o.              ",
"        o.  o.. o.o.o.+.o.=.+ u.y.g.+.g.d.d.g.g.d.y.:.0.9.f.d.8.4.g.c.i.0.;.-.o.t.@.@.;.y.o.+.*.d.&.=.*.-.+.*.o.o.o.  o.        ",
"          o.. o.o.+.o.+.o.d.u.1 u.;.o.g.-.-.*.y.r.s.g.p.6.f.f.9.q.h.c.9.s.d.a.O.%.+ O.> a.X =.o.1 =.*.o.+.o.+.o.o.o.o.          ",
"          o.. o.o.. o.. y.*.y.r.%.;.;.O X O.+.+.  d.d.i.b.j.j.q.q.g.h.b.@.d.t.6 . = + + O O.O.%.o.-.o.r.o.. o.. . o..           ",
"          o.o.. . o.o.o.d.+.y.@.f.=.%.%.o 4 = X X c.g.i.c.x.h.w.w.c.e.g.t.u.d.O o X $ . o.O.O.+.o.*.+.-.o.o.. o.. o.o.          ",
"                  o.. o.o.o.r.*.r.i.&.> $ O & q % f.a.b.i k.j.b.b.h.s.u b.q.a.& X . . o.+.-.r.*.+.*.o.o.. o.o.                  ",
"                          y.      -.*.q $ q w & e 6 q.j.k.j.k.c.v.k.j.s.j.q.5 1..   o.o.  *.+.      r.                          ",
"                                        o q q q w 6.i l.x.a p x.e.p a x.l.z.p.  o.o.                                            ",
"                                        o.  $ w y r 7 7 B P U b b x V B 0 t           o.                                        ",
"                                                  s d d V T Y C b b Y C                                                         ",
"                                                    d d L W Q N N l L R                                                         ",
"                                                        ~ Q Q J n v L W                                                         ",
"                                                        ) Q J z l h A T                                                         ",
"                                                        ) ~ G h s h A D                                                         ",
"                                                        | ( D g g c A T                                                         ",
"                                                        { / L l h v H !                                                         ",
"                                                        { / K z l v R !                                                         ",
"                                                        Q Q R m v v Y !                                                         ",
"                                                        ~ Q R H v v H Q                                                         ",
"                                                        ~ ~ W H v v H Q                                                         ",
"                                                        ~ L A l j l H R                                                         ",
"                                                        T G Z l l n R !                                                         ",
"                                                        T F Z A z N W (                                                         ",
"                                                        ~ T H v l N W [                                                         ",
"                                                        / R D v z J W '                                                         ",
"                                                        ) / D v j M W '                                                         ",
"                                                        K F Z Z l M J Q                                                         ",
"                                                        F G A l f H Y Q                                                         ",
"                                                        F I Z l f v H L                                                         ",
"                                                        ) / K h h z H R                                                         ",
"                                                        n.{ H l l h A G                                                         ",
"                                                        m.{ Y l v v H K                                                         ",
"                                                        ) ) Y c l z K Q                                                         ",
"                                                      ` / ~ J h f l J ( |                                                       ",
"                                                    M._ / R M s s l L ] | V.                                                    ",
"                                                  G.X.X.[ W N f j j J ! | X.V.                                                  ",
"                                                J.H.N...( J m k k j H ! | A.N.Z.                                                ",
"                                              I.F.D...) W H N m m j k J ' X. .B.D.                                              ",
"                                            R.I.F.B.} L H z n n n j l z J { ..H.H.E.                                            ",
"                                          Y.R.I.G.` ( H W W E n z l c g Z Q X.K.P.U.P.                                          ",
"                                          U.R.U.H.{ Q W ( ( E n l l Z Z A W [ C.P.U.R.U.                                        ",
"                                          I.J.H.` ( / ) ( / J k j l H L ~ L W ( B.L.T.P.                                        ",
"                                          I.B.M.T ( } X.~ L A l d H H Q ) ~ A Z  .H.P.P.                                        "
};
