/* XPM */
static char *_6361e36e79947c1b9464bac304ce72aZjwxYe2XuiL3FBCc[] = {
/* columns rows colors chars-per-pixel */
"64 64 185 2 ",
"   c None",
".  c #5D3D04",
"X  c #5D3F09",
"o  c #613F03",
"O  c #613F0A",
"+  c #5D410D",
"@  c #5C4314",
"#  c #5C451B",
"$  c #644204",
"%  c #6A4504",
"&  c #6E4805",
"*  c #63430C",
"=  c #6A450B",
"-  c #67480F",
";  c #6C4A0C",
":  c #744C04",
">  c #794F03",
",  c #734C0B",
"<  c #7C5104",
"1  c #76510D",
"2  c #7C530B",
"3  c #634312",
"4  c #6B4514",
"5  c #654916",
"6  c #6B4B13",
"7  c #62461C",
"8  c #6C461B",
"9  c #654A1B",
"0  c #6A4E1B",
"q  c #734C13",
"w  c #734619",
"e  c #794619",
"r  c #744D1B",
"t  c #7B4D1B",
"y  c #6E511D",
"u  c #745214",
"i  c #7B5413",
"p  c #7F5914",
"a  c #73541C",
"s  c #7C541A",
"d  c #7C5A1D",
"f  c #6D5221",
"g  c #735521",
"h  c #7F5421",
"j  c #775821",
"k  c #7A5B23",
"l  c #835504",
"z  c #865906",
"x  c #8A5B04",
"c  c #8E5E07",
"v  c #8D5C02",
"b  c #82560A",
"n  c #82550B",
"m  c #865A09",
"M  c #875A0A",
"N  c #835A0F",
"B  c #875B0C",
"V  c #84590C",
"C  c #855A0C",
"Z  c #895B08",
"A  c #8B5D09",
"S  c #895C08",
"D  c #8C5F0D",
"F  c #8C5C0B",
"G  c #844516",
"H  c #8B4614",
"J  c #8D4816",
"K  c #864719",
"L  c #8B4A19",
"P  c #934B17",
"I  c #9D4E16",
"U  c #934D1A",
"Y  c #994F1A",
"T  c #815615",
"R  c #855B12",
"E  c #865D11",
"W  c #855C13",
"Q  c #815A14",
"!  c #845B13",
"~  c #885A13",
"^  c #885E13",
"/  c #8C5D14",
"(  c #84561C",
")  c #835E1B",
"_  c #835F1D",
"`  c #855A1A",
"'  c #8B5C1D",
"]  c #97511D",
"[  c #9B521D",
"{  c #A2551C",
"}  c #AA5619",
"|  c #A4581F",
" . c #AB5A1E",
".. c #8F6009",
"X. c #8F610D",
"o. c #8F610E",
"O. c #8E610E",
"+. c #8F620F",
"@. c #8D600F",
"#. c #8E600C",
"$. c #8F6313",
"%. c #8F6311",
"&. c #8A6015",
"*. c #8F6415",
"=. c #8E6417",
"-. c #8C6115",
";. c #86611E",
":. c #87601A",
">. c #8F6518",
",. c #8F671C",
"<. c #8F671E",
"1. c #8B631B",
"2. c #8B5620",
"3. c #815F23",
"4. c #845A20",
"5. c #8E5B22",
"6. c #935322",
"7. c #9A5623",
"8. c #945C23",
"9. c #9D5925",
"0. c #975B2B",
"q. c #9D5C2A",
"w. c #A45B24",
"e. c #AA5D23",
"r. c #A25D28",
"t. c #A85F29",
"y. c #846124",
"u. c #876425",
"i. c #846124",
"p. c #8A6425",
"a. c #8F6822",
"s. c #8F6A26",
"d. c #856429",
"f. c #8F6B29",
"g. c #8F6B2A",
"h. c #8F6C2B",
"j. c #8F6C2C",
"k. c #8F6D2F",
"l. c #AC6027",
"z. c #A4612C",
"x. c #AD632B",
"c. c #B36326",
"v. c #B2652A",
"b. c #B5692E",
"n. c #B96B2E",
"m. c #AC6631",
"M. c #AD6933",
"N. c #B36B32",
"B. c #BA6E32",
"V. c #BC7136",
"C. c #B4733B",
"Z. c #BB753B",
"A. c #C26F31",
"S. c #C37234",
"D. c #CA7535",
"F. c #C37639",
"G. c #C2793D",
"H. c #CB7B3C",
"J. c #BA7741",
"K. c #C47E42",
"L. c #C87F42",
"P. c #D6823E",
"I. c #DC843E",
"U. c #C48045",
"Y. c #CB8245",
"T. c #CB894D",
"R. c #D48544",
"E. c #DB8947",
"W. c #D08A4B",
"Q. c #DE8C49",
"!. c #DC934F",
"~. c #CB8D51",
"^. c #CF9556",
"/. c #D49353",
"(. c #DB9554",
"). c #DB9C5B",
"_. c #E59653",
"`. c #E49C5A",
"'. c #E89D5A",
"]. c #E6A05D",
"[. c #ECA25E",
"{. c #E5A661",
"}. c #ECA560",
"|. c #EFA963",
" X c #F0A460",
/* pixels */
"                                                                                                                                ",
"                                                                                                                                ",
"                                                        h...        ..k.                                                        ",
"                              s.                    f.  k...%.    $...h.  f.                    s.                              ",
"                              <.    f.      #       h.k.v X.X.a.a.X.X.x k.k.      #       h.    <.                              ",
"                            <.  X.  j.f.    +   # : *.X.+.  *.%.$.%.  %.X.*.A #   +     s.h.  X.  <.                            ",
"                            <.    E f.,.  @ . . # & n v k.X.Z v v c X.k.v Z Z @ . . @   >.f.;     <.                            ",
"                  @ + , X.a.N <.  v p.k 3 @   . 0 ; > X.X.X.: c c x X.%.X.> * 0 X   + @ k y.$   <.; a.X.E ; @                   ",
"                  # = ; S d u u.< < > % + + + 8 . : : S %.; : : l : 2 =.c < > .   X + * . . $ . i.; 0 A S S #                   ",
"              a # u d p 1 : 6 0 ; a % & + + + . + * p > =.$ 0 $ % 5 $ =.l ~ - * . X @ X + . 0 + 9 @ < V -.k :.@ d               ",
"              @ 6 1   d 1 : < & + * $ $ + + @ $ . - ; % ; $ + . X 3 > 2 2 2 1 + % @ @ . % * + + $ < z p d   B d 9               ",
"              @ u 6 i S x R < > % $ = % + $ + 6 4 % 3 . + % o $ % > n , $ 6 l u 5 @ 3 o < : : . $ l E S A E &.d #               ",
"            @ 9 y 6 ;.:.p < < l , % $ $ * $ . O % % $ $ 5 6 , + 3 N u i 2 2 2 : + $ : ; : < > $ < < < E ;.;.6 d f 3             ",
"            +   i.l &.-.u > x l 1 $ $ 5 ; $ . . $ . @ f j d p - , T ( ( k 6 % % % & > 2 u 1 & 2 l < 2 i -.-.& p.  .             ",
"          + + + : < < ,.@.m < u $ % % 0 , . o . = + + 0     , $ : : h k g % % ; % > % 1 a : : % u : > @.>.% % % . + +           ",
"          + @ + * ; & k :.< 1 ..< s & 0 a . ; * w * . * - + + 4 w ; 5 - 3 $ 3 r * ; + d a < d : 1 ; : :.u.. ; + + @ .           ",
"      + @ . X . . . o % x z 6 l ' x 6 . . + . * . O X @ 7 5 X 8 4 - 6 # # O O o 3 . % % $ q > ' + 3 2 x < . . . . . X @ X       ",
"      @ @ # . . . . o % : ..n 4 b > * < . * > O . 4 4 5 . 5 * 3 * + y & 4 8 O O X $ - . o = $ % * > ..< < & . % . . @ # @       ",
"          @ # + o - % r > u x n i 1 1 @ . X z X 4 2 O i % 3 . 4 8 $ q 2 p % % O X % + . 4 = - q 1 x 1 2 t z 6 % X # @           ",
"              @ @ 6 q r b q / B ~ s r k X l l v e b > $ k * ; q , p ; d.< , , q : % $ O t w 6 p N &.i l t R p @ @               ",
"              + . $ 6 q t t : % i 1 , ; X m + z , < A $ u 6 q t ( i i d , b % , % . : 3 - = * , < 2 ( ( i s & $ *               ",
"              . + *   9 r ( % > : & 5 z n 2 < @ v < F q ( 1 s T i ` N ;.T F % l @ . 1 % < 3 . > l > ( s g   ; % .               ",
"        #   @ @ + . + 9 3 % = b > l - l N 2 z B l n , T ( m ~ T s ~ A _ ` , : o 2 % % 1 > O o % n ; ; 0 f * % X @ @   #         ",
"          # @ # # 3 . * . l b t l 1 . &.a & ; i , 5.x / ( B ~ ( ' / D ( ~ l 5.O q 3 o e ~ . , O t : $ o * . 5 # # @ #           ",
"          @ . X X @ # . > % 2 : , : , O O 4 4 .   n z 2 v / / ' ' / / x ; b < K . 4 O O 3 * $ , o % . < . # @ . X . @           ",
"          # @ @ + X X . l 9 2 ; l , q q O e 4 3 3 x z T z 8.c ' 5.c 8.b 1 b Z O O 3 8 X * * * $ O - 9 % . X X @ @ @ #           ",
"                  # # X + @ a 0 s s i e w O 8 w 4 / ` v ( / X...v / / ( v ( / w 7 # @ @ 7 a a 6 5 0 @ + X # #                   ",
"                          k       g 0 w O w w 8 t G ' / / / ' ..c 1.*./ / 2.G r #   # #   9 9       j                           ",
"                                        7 w w w e ( 2.2.5.0.8.8.8.8.0.8.' 2.4.  # #                                             ",
"                                        #   9 e t t L L 7.z.l.| { ] w.7.L 2.          #                                         ",
"                                                  H H H 9.x.x.| | [ l.w.                                                        ",
"                                                    H H z.x.n. . .] t.v.                                                        ",
"                                                        m.m.v.e.} ] t.x.                                                        ",
"                                                        A.v.v.[ U L 7.z.                                                        ",
"                                                        S.m.r.K G L 7.w.                                                        ",
"                                                        H.B.9.K G ] 7.z.                                                        ",
"                                                        F.N.w.U L [ l.b.                                                        ",
"                                                        F.B.t.Y U ] l.b.                                                        ",
"                                                        N.m.l.{ ] { l.b.                                                        ",
"                                                        m.N.c.w.] [ l.b.                                                        ",
"                                                        m.x.v.w.Y [ w.v.                                                        ",
"                                                        M.z.7.U U ] t.v.                                                        ",
"                                                        z.q.6.U U | l.b.                                                        ",
"                                                        z.q.6.7.]  .v.n.                                                        ",
"                                                        x.z.r.[ U  .v.D.                                                        ",
"                                                        M.x.9.{ ]  .l.A.                                                        ",
"                                                        V.N.9.] P | c.S.                                                        ",
"                                                        z.q.2.] Y | l.v.                                                        ",
"                                                        8.q.0.U K  .l.b.                                                        ",
"                                                        0.q.] U H [ r.z.                                                        ",
"                                                        V.N.9.L L [ r.t.                                                        ",
"                                                        P.F.l.L U L 7.9.                                                        ",
"                                                        I.F.l.] [ Y w.r.                                                        ",
"                                                        V.V.l.Y Y Y w.N.                                                        ",
"                                                      Z.N.M.l.J J U c.B.H.                                                      ",
"                                                    U.C.N.x.| G G P t.B.H.R.                                                    ",
"                                                  /.L.K.D.v. .J I P e.n.H.L.R.                                                  ",
"                                                ).(.L.K.A.e.} I I U w.n.H.Q.L.W.                                                ",
"                                              ].^.~.K.V.v.w. .} } I Y t.A.L.J.T.~.                                              ",
"                                            |.]./.T.K.t.w.Y { { I U P U t.F.L.(._.}.                                            ",
"                                          [.[.]./.J.B.e.c.v.c.{ { U ] K ] v.L._.'.[.'.                                          ",
"                                          |.|.[.(.V.b.v.B.A.l.{ J U 6.6.9.v.D.Q.'.[.|.}.                                        ",
"                                          ].).(.Z.n.N.V.V.N.e.Y J Y w.t.m.t.x.B.T.`.}.[.                                        ",
"                                          ].~.U.z.V.F.U.M.t.] U H w.w.N.B.m.9.6.Z.(.`.'.                                        "
};
